<?xml version="1.0" standalone="no"?>
<!DOCTYPE svg PUBLIC "-//W3C//DTD SVG 20010904//EN"
 "http://www.w3.org/TR/2001/REC-SVG-20010904/DTD/svg10.dtd">
<svg version="1.0" xmlns="http://www.w3.org/2000/svg"
 width="206.000000pt" height="157.000000pt" viewBox="0 0 306.000000 187.000000"
 preserveAspectRatio="xMidYMid meet">

<g transform="translate(0.000000,187.000000) scale(0.100000,-0.100000)"
fill="#000000" stroke="none">
<path d="M2892 1528 c-5 -7 -19 -32 -31 -55 -55 -110 -190 -212 -327 -247
-140 -36 -329 -11 -444 59 -60 36 -144 119 -175 173 -25 42 -51 50 -79 23
l-21 -21 25 -48 c14 -26 55 -78 93 -116 37 -38 67 -72 67 -76 0 -4 -12 -33
-26 -64 -27 -60 -25 -91 7 -101 27 -9 42 6 73 71 21 44 30 54 44 49 70 -27
136 -45 192 -51 36 -4 68 -12 72 -18 4 -6 8 -37 8 -68 0 -50 3 -60 25 -74 24
-16 27 -16 45 1 16 15 20 31 20 86 0 56 3 68 18 72 9 3 42 11 72 18 30 6 79
23 109 36 29 13 60 22 67 19 8 -3 28 -28 45 -56 26 -42 36 -51 57 -48 47 6 51
32 14 101 -18 34 -32 66 -32 70 0 5 24 35 53 68 70 77 113 159 97 188 -12 23
-52 28 -68 9z"/>
<path d="M1142 1523 c-7 -3 -21 -22 -32 -44 -34 -66 -134 -163 -207 -202 -190
-99 -425 -95 -589 11 -65 42 -136 117 -165 174 -21 40 -52 56 -74 38 -38 -31
-5 -101 93 -202 l56 -58 -34 -70 -34 -70 21 -21 c31 -32 59 -17 91 47 29 61
38 63 104 34 25 -11 81 -26 124 -33 l79 -13 5 -73 c5 -69 16 -91 45 -91 30 0
40 22 45 92 l5 73 82 17 c45 9 103 26 129 37 26 12 52 21 58 21 6 0 25 -25 41
-55 30 -56 49 -70 78 -59 30 11 28 41 -5 108 l-32 65 60 63 c100 104 134 174
102 206 -13 13 -24 14 -46 5z"/>
<path d="M1421 756 c-32 -18 -50 -53 -51 -97 0 -29 10 -47 51 -95 29 -32 62
-70 75 -83 38 -38 33 -95 -12 -137 -52 -50 -91 -47 -153 11 -27 25 -58 45 -70
45 -84 0 29 -151 124 -165 40 -7 55 -3 109 24 l62 32 58 -31 c91 -47 150 -37
219 39 39 43 47 80 23 100 -18 15 -56 -2 -56 -23 0 -24 -59 -66 -91 -66 -98 0
-158 111 -93 171 15 13 49 50 75 82 38 45 49 66 49 93 0 50 -24 90 -61 103
-45 16 -228 14 -258 -3z"/>
</g>
</svg>
